<svg width="584" height="589" viewBox="0 0 154.51666 155.83958" version="1.1" xmlns="http://www.w3.org/2000/svg">
    <style>
        text {
            fill: #363636;
        }

        path {
            fill: #7957D5;
        }

        @media (prefers-color-scheme: dark) {
            text {
                fill: #DBDBDB;
            }

            path {
                fill: #7957D5;
            }
        }
    </style>
    <defs>
        <clipPath id="clip0">
            <rect x="1671" y="838" width="1058" height="925" id="rect2" />
        </clipPath>
    </defs>
    <g clip-path="url(#clip0)" transform="matrix(0.26458333,0,0,0.26458333,-504.82499,-249.51002)">
        <text font-family="'Source Code Pro Black', 'Source Code Pro Black_MSFontService', sans-serif" font-weight="900"
            font-size="440px" transform="translate(1935.17,1384)">
            S<tspan font-size="440px" x="266.116" y="0" id="tspan9">R</tspan>
        </text>
        <path
            d="m 2079.58,983.115 24.94,-13.923 14.46,-4.68 13.29,-3.546 13.4,-2.925 13.48,-2.264 13.54,-1.651 13.66,-0.992 13.66,-0.331 13.66,0.331 13.66,0.992 13.53,1.651 13.49,2.264 13.4,2.925 13.29,3.546 13.17,4.266 12.96,4.918 12.74,5.568 12.48,6.171 12.31,6.817 11.96,7.517 11.7,8.111 11.37,8.82 10.99,9.47 10.25,9.7 -25.21,26.63 -9.94,-9.41 0.62,0.57 -10.29,-8.89 0.74,0.61 -10.61,-8.22 0.79,0.58 -10.96,-7.6 0.69,0.45 -11.18,-7.02 0.87,0.51 -11.49,-6.36 0.76,0.39 -11.71,-5.78 0.78,0.36 -11.93,-5.22 0.83,0.35 -12.11,-4.6 0.86,0.3 -12.28,-3.976 0.92,0.271 -12.42,-3.314 0.82,0.198 -12.56,-2.74 0.88,0.169 -12.64,-2.122 0.82,0.118 -12.69,-1.546 0.89,0.086 -12.77,-0.928 0.89,0.043 -12.78,-0.309 h 0.89 l -12.77,0.309 0.88,-0.043 -12.77,0.928 0.89,-0.086 -12.68,1.546 0.81,-0.118 -12.64,2.122 0.88,-0.169 -12.55,2.74 0.82,-0.198 -12.42,3.314 0.92,-0.271 -12.29,3.976 3.29,-1.43 -23.37,13.04 z m 54.31,52.095 -122.19,13.93 62.16,-106.11 z" />
        <path
            d="m 2320.42,1491.89 -24.94,13.92 -14.46,4.68 -13.29,3.54 -13.4,2.93 -13.48,2.26 -13.54,1.65 -13.66,1 -13.66,0.33 -13.66,-0.33 -13.66,-1 -13.53,-1.65 -13.49,-2.26 -13.4,-2.93 -13.29,-3.54 -13.17,-4.27 -12.96,-4.92 -12.74,-5.56 -12.48,-6.17 -12.31,-6.82 -11.96,-7.52 -11.7,-8.11 -11.37,-8.82 -10.99,-9.47 -10.25,-9.7 25.21,-26.63 9.94,9.41 -0.62,-0.57 10.29,8.89 -0.74,-0.61 10.61,8.22 -0.79,-0.58 10.96,7.6 -0.69,-0.45 11.18,7.02 -0.87,-0.51 11.49,6.36 -0.76,-0.39 11.71,5.79 -0.78,-0.37 11.93,5.22 -0.83,-0.35 12.11,4.6 -0.86,-0.3 12.28,3.98 -0.92,-0.27 12.42,3.31 -0.82,-0.2 12.56,2.74 -0.88,-0.17 12.64,2.12 -0.82,-0.11 12.69,1.54 -0.89,-0.08 12.77,0.92 -0.89,-0.04 12.78,0.31 h -0.89 l 12.77,-0.31 -0.88,0.04 12.77,-0.92 -0.89,0.08 12.68,-1.54 -0.81,0.11 12.64,-2.12 -0.88,0.17 12.55,-2.74 -0.82,0.2 12.42,-3.31 -0.92,0.27 12.29,-3.98 -3.29,1.43 23.37,-13.04 z m -54.31,-52.1 122.19,-13.93 -62.16,106.11 z" />
    </g>
</svg>